<svg xmlns="http://www.w3.org/2000/svg" viewBox="0 0 50 50">
  <path d="M25 2C12.308594 2 2 12.308594 2 25C2 37.691406 12.308594 48 25 48C37.691406 48 48 37.691406 48 25C48 12.308594 37.691406 2 25 2 Z M 25 4C36.609375 4 46 13.390625 46 25C46 36.609375 36.609375 46 25 46C13.390625 46 4 36.609375 4 25C4 13.390625 13.390625 4 25 4 Z M 24.90625 11.96875C24.863281 11.976563 24.820313 11.988281 24.78125 12C24.316406 12.105469 23.988281 12.523438 24 13L24 34.5625L17.71875 28.28125C17.476563 28.03125 17.121094 27.925781 16.78125 28C16.40625 28.066406 16.105469 28.339844 16 28.703125C15.894531 29.070313 16.003906 29.460938 16.28125 29.71875L24.15625 37.5625C24.175781 37.59375 24.195313 37.625 24.21875 37.65625L24.28125 37.71875C24.300781 37.742188 24.320313 37.761719 24.34375 37.78125C24.355469 37.78125 24.363281 37.78125 24.375 37.78125C24.441406 37.84375 24.515625 37.894531 24.59375 37.9375C24.605469 37.9375 24.613281 37.9375 24.625 37.9375C24.644531 37.949219 24.667969 37.960938 24.6875 37.96875C24.699219 37.96875 24.707031 37.96875 24.71875 37.96875C24.75 37.980469 24.78125 37.992188 24.8125 38C24.917969 38.015625 25.019531 38.015625 25.125 38C25.144531 38 25.167969 38 25.1875 38C25.273438 37.980469 25.359375 37.949219 25.4375 37.90625C25.570313 37.839844 25.6875 37.742188 25.78125 37.625L33.71875 29.71875C34.117188 29.320313 34.117188 28.679688 33.71875 28.28125C33.320313 27.882813 32.679688 27.882813 32.28125 28.28125L26 34.5625L26 13C26.011719 12.710938 25.894531 12.433594 25.6875 12.238281C25.476563 12.039063 25.191406 11.941406 24.90625 11.96875Z" fill="#2B9254" />
</svg>